<?xml version="1.0" standalone="no"?>
        <!DOCTYPE svg PUBLIC "-//W3C//DTD SVG 1.1//EN" 
        "http://www.w3.org/Graphics/SVG/1.1/DTD/svg11.dtd">  <svg xmlns="http://www.w3.org/2000/svg" xmlns:xlink="http://www.w3.org/1999/xlink" width="40" zoomAndPan="magnify" viewBox="0 0 30 30.000001" height="40" preserveAspectRatio="xMidYMid meet" version="1.0"><defs><clipPath id="id1"><path d="M 2.675781 6.132812 L 27.355469 6.132812 L 27.355469 24.277344 L 2.675781 24.277344 Z M 2.675781 6.132812 " clip-rule="nonzero"/></clipPath><clipPath id="id2"><path d="M 2.675781 6.132812 L 27.355469 6.132812 L 27.355469 16 L 2.675781 16 Z M 2.675781 6.132812 " clip-rule="nonzero"/></clipPath><clipPath id="id3"><path d="M 4 6.132812 L 10 6.132812 L 10 15 L 4 15 Z M 4 6.132812 " clip-rule="nonzero"/></clipPath></defs><g clip-path="url(#id1)"><path fill="rgb(93.328857%, 93.328857%, 93.328857%)" d="M 27.347656 21.488281 C 27.347656 23.027344 26.121094 24.277344 24.609375 24.277344 L 5.421875 24.277344 C 3.910156 24.277344 2.683594 23.027344 2.683594 21.488281 L 2.683594 8.925781 C 2.683594 7.382812 3.910156 6.132812 5.421875 6.132812 L 24.609375 6.132812 C 26.121094 6.132812 27.347656 7.382812 27.347656 8.925781 Z M 27.347656 21.488281 " fill-opacity="1" fill-rule="nonzero"/></g><g clip-path="url(#id2)"><path fill="rgb(92.939758%, 16.079712%, 22.349548%)" d="M 27.347656 15.207031 L 27.347656 8.925781 C 27.347656 7.382812 26.121094 6.132812 24.609375 6.132812 L 5.421875 6.132812 C 3.910156 6.132812 2.683594 7.382812 2.683594 8.925781 L 2.683594 15.207031 Z M 27.347656 15.207031 " fill-opacity="1" fill-rule="nonzero"/></g><g clip-path="url(#id3)"><path fill="rgb(100%, 100%, 100%)" d="M 6.792969 10.671875 C 6.792969 8.867188 7.90625 7.355469 9.402344 6.945312 C 9.117188 6.875 8.816406 6.832031 8.507812 6.832031 C 6.425781 6.832031 4.738281 8.550781 4.738281 10.671875 C 4.738281 12.789062 6.425781 14.507812 8.507812 14.507812 C 8.816406 14.507812 9.117188 14.464844 9.402344 14.394531 C 7.90625 13.984375 6.792969 12.472656 6.792969 10.671875 Z M 6.792969 10.671875 " fill-opacity="1" fill-rule="nonzero"/></g><path fill="rgb(93.328857%, 93.328857%, 93.328857%)" d="M 10.90625 7.53125 L 11.058594 8.011719 L 11.554688 8.011719 L 11.152344 8.308594 L 11.308594 8.792969 L 10.90625 8.492188 L 10.5 8.792969 L 10.65625 8.308594 L 10.253906 8.011719 L 10.75 8.011719 Z M 9.535156 12.414062 L 9.6875 12.898438 L 10.1875 12.898438 L 9.78125 13.195312 L 9.9375 13.675781 L 9.535156 13.378906 L 9.132812 13.675781 L 9.285156 13.195312 L 8.882812 12.898438 L 9.378906 12.898438 Z M 12.273438 12.414062 L 12.429688 12.898438 L 12.925781 12.898438 L 12.523438 13.195312 L 12.675781 13.675781 L 12.273438 13.378906 L 11.871094 13.675781 L 12.027344 13.195312 L 11.625 12.898438 L 12.121094 12.898438 Z M 8.847656 9.625 L 9.003906 10.105469 L 9.5 10.105469 L 9.097656 10.402344 L 9.253906 10.886719 L 8.847656 10.585938 L 8.445312 10.886719 L 8.601562 10.402344 L 8.199219 10.105469 L 8.695312 10.105469 Z M 12.960938 9.625 L 13.113281 10.105469 L 13.613281 10.105469 L 13.207031 10.402344 L 13.363281 10.886719 L 12.960938 10.585938 L 12.558594 10.886719 L 12.710938 10.402344 L 12.308594 10.105469 L 12.804688 10.105469 Z M 12.960938 9.625 " fill-opacity="1" fill-rule="nonzero"/></svg>  